Coordinates
version=1
nRows=9
nColumns=42
inDegrees=yes

Units are S.I. units (second, meters, Newtons, ...)
If the header above contains a line with 'inDegrees', this indicates whether rotational values are in degrees (yes) or radians (no).

endheader
time	pelvis_tilt	pelvis_list	pelvis_rotation	pelvis_tx	pelvis_ty	pelvis_tz	hip_flexion_r	hip_adduction_r	hip_rotation_r	knee_angle_r	knee_adduction_r	knee_angle_r_beta	ankle_angle_r	subtalar_angle_r	mtp_angle_r	hip_flexion_l	hip_adduction_l	hip_rotation_l	knee_angle_l	knee_adduction_l	knee_angle_l_beta	ankle_angle_l	subtalar_angle_l	mtp_angle_l	lumbar_extension	lumbar_bending	lumbar_rotation	arm_flex_r	arm_add_r	arm_rot_r	elbow_flex_r	pro_sup_r	wrist_flex_r	wrist_dev_r	arm_flex_l	arm_add_l	arm_rot_l	elbow_flex_l	pro_sup_l	wrist_flex_l	wrist_dev_l
      2.05000000	      6.98206498	      5.85917590	     -3.07017139	     -0.49235985	      0.98044499	      0.31911055	    -19.34057973	     -9.73417597	    -16.10624155	     25.66645940	      1.77225269	      0.44796422	      6.47006067	      7.83831338	     -7.59009999	      7.94551842	      5.27968345	    -13.58131046	      3.72975198	     -0.96547163	      0.06509645	     -8.33912741	     11.01110957	     -7.59009999	    -18.18025883	    -11.16322417	      4.24860400	     24.50305493	    -17.59268955	     29.26561353	     37.51716917	     90.00000001	      0.00000000	      0.00000000	    -15.86573864	    -13.28415258	      6.79323567	     38.14060413	     90.00000001	      0.00000000	      0.00000000
      2.06000000	      6.99262023	      6.18934528	     -3.09317344	     -0.48284052	      0.98214329	      0.31710270	    -18.48720025	    -10.71864713	    -17.02715185	     28.20306803	      1.52118537	      0.49223640	      3.85542439	      6.87487862	     -7.58861282	      7.11954482	      5.90480560	    -13.71683035	      3.25295007	     -1.07991528	      0.05677469	     -7.97228313	     11.63216171	     -7.58861282	    -18.13068536	    -11.60077281	      4.15605556	     23.61100916	    -17.61771644	     29.17048231	     37.54650292	     90.00000001	      0.00000000	      0.00000000	    -15.26035613	    -13.55776358	      7.18181868	     37.80866671	     90.00000001	      0.00000000	      0.00000000
      2.07000000	      7.03411960	      6.30596684	     -2.95715568	     -0.47379255	      0.98386766	      0.31491197	    -17.62969388	    -11.49392593	    -17.52375069	     30.81288664	      1.56529614	      0.53778632	      1.61982158	      6.05177968	     -7.58704096	      6.39541167	      6.24911172	    -13.72285151	      3.05872178	     -1.08293093	      0.05338477	     -7.53038101	     12.11618682	     -7.58704096	    -18.22825177	    -11.73947337	      3.84476413	     22.84461392	    -17.57745106	     29.00258018	     37.59532825	     90.00000001	      0.00000000	      0.00000000	    -14.66623980	    -13.84010610	      7.66081450	     37.66005630	     90.00000001	      0.00000000	      0.00000000
      2.08000000	      6.97875376	      6.43372139	     -2.74700962	     -0.46503833	      0.98536724	      0.31253963	    -16.52597096	    -12.30944529	    -17.98131470	     33.63215961	      1.61747177	      0.58699192	     -0.73845426	      4.81358222	     -7.58482903	      5.85517679	      6.63188547	    -13.64178245	      2.97165529	     -1.15490612	      0.05186517	     -7.11846330	     12.59233119	     -7.58482903	    -18.25673542	    -11.85609138	      3.50447253	     22.04287596	    -17.55967984	     28.74331909	     37.66621031	     90.00000001	      0.00000000	      0.00000000	    -14.00995886	    -14.19218434	      8.37333457	     37.56976024	     90.00000001	      0.00000000	      0.00000000
      2.09000000	      6.99063378	      6.47769022	     -2.59488341	     -0.45660086	      0.98691665	      0.31044611	    -15.37270222	    -13.00758005	    -18.08298174	     36.51096025	      1.71226756	      0.63723647	     -3.10613775	      2.97716819	     -7.58098437	      5.23646701	      6.88056344	    -13.51249914	      2.87573888	     -1.15462465	      0.05019111	     -6.54109444	     12.89100256	     -7.58098437	    -18.38681777	    -11.90737652	      3.24816343	     21.27164715	    -17.51525058	     28.43149964	     37.65715390	     90.00000001	      0.00000000	      0.00000000	    -13.25508340	    -14.61072025	      9.26152610	     37.52896780	     90.00000001	      0.00000000	      0.00000000
      2.10000000	      7.05697379	      6.49235189	     -2.40393353	     -0.44835709	      0.98844228	      0.30833634	    -14.19271912	    -13.65812524	    -18.29971842	     39.41728534	      1.67966413	      0.68796141	     -5.56340544	      1.19147367	     -7.57776036	      4.54842989	      7.10445751	    -13.26373299	      2.75099587	     -1.16112297	      0.04801394	     -6.04472077	     13.14159784	     -7.57776036	    -18.60728671	    -11.90606107	      2.92503063	     20.53546368	    -17.48820351	     28.28112891	     37.68136306	     90.00000001	      0.00000000	      0.00000000	    -12.45696292	    -14.96618320	      9.84593104	     37.47835230	     90.00000001	      0.00000000	      0.00000000
      2.11000000	      7.10743309	      6.48718201	     -2.22542350	     -0.44042662	      0.98981572	      0.30629553	    -12.88765600	    -14.27098103	    -18.32933001	     42.35663591	      1.67588863	      0.73926276	     -7.87618357	     -0.92080697	     -7.57428895	      3.89771027	      7.29975799	    -13.01234704	      2.62454347	     -1.16855805	      0.04580692	     -5.53043363	     13.29700239	     -7.57428895	    -18.83246053	    -11.87988012	      2.62602665	     19.82469736	    -17.46234676	     28.12390976	     37.67332378	     90.00000001	      0.00000000	      0.00000000	    -11.58573448	    -15.34812499	     10.52359786	     37.46015046	     90.00000001	      0.00000000	      0.00000000
      2.12000000	      7.20074124	      6.46673072	     -2.08549631	     -0.43276605	      0.99114145	      0.30445542	    -11.54117305	    -14.82684146	    -18.17901581	     45.25360586	      1.67906741	      0.78982442	    -10.08252104	     -3.26680724	     -7.56985279	      3.19461578	      7.45235732	    -12.75459633	      2.47747220	     -1.15589054	      0.04324005	     -5.04292110	     13.42642926	     -7.56985279	    -19.12801175	    -11.85317110	      2.37427661	     19.13821189	    -17.42386747	     27.98465182	     37.65014305	     90.00000001	      0.00000000	      0.00000000	    -10.62732563	    -15.76096343	     11.21671341	     37.44514181	     90.00000001	      0.00000000	      0.00000000
      2.13000000	      7.23061764	      6.46787677	     -1.85197278	     -0.42536464	      0.99216202	      0.30243885	    -10.06739120	    -15.39270485	    -18.38520717	     48.14929760	      1.44255388	      0.84036378	    -11.85059114	     -5.01064017	     -7.56731434	      2.61833118	      7.64501565	    -12.57691891	      2.36658402	     -1.18290810	      0.04130468	     -4.61187596	     13.72097789	     -7.56731434	    -19.37429866	    -11.80638448	      2.00414830	     18.46165422	    -17.40829958	     27.94133192	     37.65386591	     90.00000001	      0.00000000	      0.00000000	     -9.64598629	    -16.14508597	     11.75652430	     37.44893802	     90.00000001	      0.00000000	      0.00000000
